{
	"nodes":[{
		"name":"REFORM-MARK.ai",
		"children":[1]
	},
	{
		"name":"Null",
		"children":[2]
	},
	{
		"name":"Layer 1",
		"children":[3]
	},
	{
		"name":"Spline",
		"translation":[-81.94132232666016,
		-91.82537078857422,
		0.0],
		"rotation":[0.0,
		0.0,
		0.0,
		-1.0],
		"scale":[1.0,
		1.0,
		1.0],
		"mesh":0
	}],
	"asset":{
		"version":"2.0",
		"generator":"Created using the official Cinema 4D glTF Exporter 1.000x284978"
	},
	"scenes":[{
		"nodes":[0]
	}],
	"meshes":[{
		"name":"Spline",
		"primitives":[{
			"attributes":{
				"POSITION":1,
				"NORMAL":2,
				"TEXCOORD_0":3
			},
			"indices":0
		}]
	}],
	"accessors":[{
		"bufferView":0,
		"max":[633],
		"count":1860,
		"type":"SCALAR",
		"componentType":5123,
		"byteOffset":0,
		"min":[0]
	},
	{
		"bufferView":1,
		"max":[171.30120849609376,
		172.0,
		0.0],
		"count":634,
		"type":"VEC3",
		"componentType":5126,
		"byteOffset":0,
		"min":[0.0001983642578125,
		0.6989994049072266,
		-50.0]
	},
	{
		"bufferView":1,
		"max":[1.0,
		1.0,
		1.0],
		"count":634,
		"type":"VEC3",
		"componentType":5126,
		"byteOffset":12,
		"min":[-1.0,
		-1.0,
		-1.0]
	},
	{
		"bufferView":1,
		"max":[1.0,
		1.0],
		"count":634,
		"type":"VEC2",
		"componentType":5126,
		"byteOffset":24,
		"min":[0.0,
		0.0]
	}],
	"bufferViews":[{
		"buffer":0,
		"byteOffset":0,
		"byteLength":3720,
		"target":34963
	},
	{
		"buffer":0,
		"byteOffset":3720,
		"byteLength":20288,
		"target":34962,
		"byteStride":32
	}],
	"buffers":[{
		"uri":"data:application/octet-stream;base64,",
		"byteLength":24008
	}]
}